<?xml version="1.0" encoding="utf-8"?>
<!-- Generator: Adobe Illustrator 24.0.3, SVG Export Plug-In . SVG Version: 6.00 Build 0)  -->
<svg version="1.1" id="Layer_1" xmlns="http://www.w3.org/2000/svg" xmlns:xlink="http://www.w3.org/1999/xlink" x="0px" y="0px"
	 viewBox="0 0 1918.7 1256.5" style="enable-background:new 0 0 1918.7 1256.5;" xml:space="preserve">
<style type="text/css">
	.st0{fill:#E32428;}
</style>
<g>
	<path class="st0" d="M181.1,297.9C175.5,156.2,238.4,34,401.5,7.6c31.3-5.1,63.4-7.1,95.1-7.1c314.7-0.5,629.3-0.8,944,0.4
		c37.9,0.1,76.7,5.9,113.3,15.8c103.9,28.3,167.6,105.6,179.9,212.7c2.5,22.1,3.6,44.4,5.4,66.9c-22.1,3.6-42,5.4-61.3,10.1
		c-69.8,17-112,67.8-117.5,139.5c-2.3,30-2.4,60.3-7.9,89.7c-12.2,66.2-62.9,110.5-132.5,118.4c-19.9,2.3-40,3.5-60,3.5
		c-272.7,0.2-545.5,0.3-818.2-0.2c-21.6,0-43.7-2.7-64.8-7.5c-69.4-15.9-111.8-68.7-116.4-142.1c-1.6-25.9-1.2-52.2-6.1-77.5
		c-15.4-80.1-67.7-124.7-149.3-130.3C197.1,299.4,189,298.6,181.1,297.9z"/>
	<path class="st0" d="M958.6,1256.4c-158.8,0-317.5,0.1-476.3-0.2c-13.5,0-27.2-1.3-40.4-3.9c-48.3-9.5-78.6-44.1-81.1-93.7
		c-1-19.9-1-40.4,3-59.7c9.5-45.8,40.2-72.5,86.4-78.4c12.8-1.6,25.8-2.6,38.8-2.6c313.4-0.1,626.8-0.2,940.1,0.1
		c17.5,0,35.5,1.7,52.5,5.9c45.5,11.2,72.4,44,75.1,91c1.1,18.7,1.8,38.1-1.6,56.4c-10.1,55.7-50.4,84.9-115.1,85
		C1279.7,1256.5,1119.1,1256.4,958.6,1256.4z"/>
	<path class="st0" d="M958.8,956.3c-158.2,0-316.3,0-474.5-0.1c-12.3,0-25,0.1-37-2.2c-55.8-10.8-84.7-44.6-87.1-101.6
		c-0.6-15.3-0.9-30.9,1.6-45.9c9-53.4,45-83.6,102.3-87.1c6.5-0.4,13-0.3,19.5-0.3c316.9,0,633.8-0.1,950.7,0.1
		c14.1,0,28.4,1,42.1,3.9c41.2,8.6,69.9,32.5,77,75.1c4,24.1,5.3,49.7,1.6,73.7c-7.8,50.3-43.5,80.4-95.3,83.5
		c-28.2,1.7-56.6,1-84.9,1C1236.1,956.3,1097.5,956.3,958.8,956.3z"/>
	<path class="st0" d="M1619.2,807.7c0-106.3-0.1-212.5,0.1-318.8c0-14.7,0.8-29.6,3.3-44c8.5-48.3,42.2-78.4,92-83.5
		c104.7-10.8,177.2,44,195.9,149.6c4.7,26.6,7.2,53.9,7.4,80.8c0.7,118.1,1.3,236.2-0.5,354.2c-1,67.3-9.4,134.2-35.1,197.4
		c-20.3,49.9-50.3,90.7-105.2,106.9c-26.8,7.9-53.5,7.9-80.3,0.7c-53-14.2-77.6-50.9-77.7-117.4
		C1619,1024.9,1619.2,916.3,1619.2,807.7z"/>
	<path class="st0" d="M298.3,808.3c0,108,0.1,216.1-0.2,324.1c0,14.1-1.2,28.4-3.9,42.2c-13.8,69.7-77.8,86.5-130.1,80.4
		c-63.9-7.5-101.2-48.5-125.7-104c-21.9-49.7-33.6-102.6-34.8-156.2C0.6,852.6-1,710.3,0.7,568.1c0.4-37.3,10.2-76.3,23.9-111.4
		c37.5-96,143.2-111.1,209.7-87.6c43,15.2,63.8,52.6,63.9,111.5C298.4,589.9,298.3,699.1,298.3,808.3z"/>
</g>
</svg>
