<?xml version="1.0" encoding="utf-8"?>
<!-- Generator: Adobe Illustrator 24.0.3, SVG Export Plug-In . SVG Version: 6.00 Build 0)  -->
<svg version="1.1" id="Layer_1" xmlns="http://www.w3.org/2000/svg" xmlns:xlink="http://www.w3.org/1999/xlink" x="0px" y="0px"
	 viewBox="0 0 2490.6 922.7" style="enable-background:new 0 0 2490.6 922.7;" xml:space="preserve">
<style type="text/css">
	.st0{fill:#621EE5;}
</style>
<g>
	<path class="st0" d="M120,802c-6.4-6.8-14.1-12.2-22.7-15.9c-8.6-3.8-17.7-5.6-27.1-5.6c-9.4-0.2-18.5,1.8-27.1,5.4
		c-8.6,3.8-16.3,9.2-22.7,15.9c-6.6,6.6-11.8,14.3-15.1,22.9C1.8,833.4,0,842.6,0,851.8c-0.2,9.4,1.6,18.5,5.2,27.1
		c3.6,8.6,8.8,16.3,15.3,22.9c12.9,13.7,31,21.3,49.8,20.9c18.8,0.1,36.8-7.5,49.8-20.9c6.8-6.4,12-14.1,15.5-22.7
		c3.6-8.6,5.4-17.7,5.4-27.1s-1.8-18.5-5.4-27.1C131.9,816.1,126.7,808.3,120,802L120,802z M953.8,640.2c-1,44.6,1.2,89.5,6.4,133.9
		h-2.4c-5.6-11-17.9-31.3-36.9-61L466.7,0H328.8v910.4h106V252.2c1.2-41.6-0.6-83.3-5-124.9h4c7.6,19.9,17.3,39.1,28.9,57
		l466.6,726.1h130.5V0h-106V640.2z M1778.5,810.3h-374.6V494.9h327.8v-96h-327.8V96.4h351.7V0h-460.3v910.4h482.6L1778.5,810.3z
		 M1859.6,0v96.4h261v813.9h106V96.4h264V0H1859.6z"/>
</g>
</svg>
